<svg width="512" height="512" viewBox="0 0 512 512" xmlns="http://www.w3.org/2000/svg" role="img" aria-label="Prepa app icon">
  <defs>
    <radialGradient id="g" cx="50%" cy="56%" r="60%">
      <stop offset="0%" stop-color="#2DD4A7" stop-opacity="0.14"/>
      <stop offset="55%" stop-color="#2DD4A7" stop-opacity="0.04"/>
      <stop offset="100%" stop-color="#2DD4A7" stop-opacity="0"/>
    </radialGradient>
  </defs>
  <rect width="512" height="512" rx="116" fill="#0E1116"/>
  <rect width="512" height="512" rx="116" fill="url(#g)"/>
  <path fill-rule="evenodd" fill="#2DD4A7" d="M150 392 L150 120 L300 120 C366 120 406 170 406 232 C406 294 366 320 300 320 L230 320 L230 392 Z M 275.87 274.83 L 277.66 276.99 L 279.68 278.94 L 281.90 280.65 L 284.31 282.10 L 286.85 283.27 L 289.52 284.14 L 292.26 284.72 L 295.05 284.98 L 297.86 284.93 L 300.64 284.57 L 303.36 283.89 L 305.99 282.92 L 308.50 281.65 L 310.84 280.12 L 313.00 278.33 L 314.95 276.31 L 316.66 274.08 L 376.66 186.08 L 378.10 183.68 L 379.27 181.13 L 380.15 178.47 L 380.72 175.73 L 380.98 172.94 L 380.93 170.13 L 380.56 167.35 L 379.89 164.63 L 378.91 162.00 L 377.65 159.50 L 376.12 157.15 L 374.33 155.00 L 372.31 153.05 L 370.08 151.34 L 367.68 149.90 L 365.13 148.73 L 362.47 147.85 L 359.73 147.28 L 356.94 147.02 L 354.13 147.07 L 351.35 147.44 L 348.63 148.11 L 346.00 149.09 L 343.50 150.35 L 341.15 151.88 L 339.00 153.67 L 337.05 155.69 L 335.34 157.92 L 295.21 216.78 L 288.13 207.17 L 286.34 205.01 L 284.32 203.06 L 282.10 201.35 L 279.70 199.91 L 277.15 198.74 L 274.49 197.86 L 271.75 197.28 L 268.95 197.02 L 266.15 197.07 L 263.37 197.43 L 260.65 198.10 L 258.02 199.08 L 255.52 200.34 L 253.17 201.87 L 251.01 203.66 L 249.06 205.68 L 247.35 207.90 L 245.91 210.30 L 244.74 212.85 L 243.86 215.51 L 243.28 218.25 L 243.02 221.05 L 243.07 223.85 L 243.43 226.63 L 244.10 229.35 L 245.08 231.98 L 246.34 234.48 L 247.87 236.83 L 275.87 274.83 Z"/>
</svg>
